<?xml version="1.0" encoding="utf-8"?>
<!-- Generator: Adobe Illustrator 22.0.1, SVG Export Plug-In . SVG Version: 6.00 Build 0)  -->
<svg version="1.1" id="Ebene_1" xmlns="http://www.w3.org/2000/svg" xmlns:xlink="http://www.w3.org/1999/xlink" x="0px" y="0px"
     viewBox="0 0 598.5 598.5" enable-background="new 0 0 598.5 598.5" xml:space="preserve">
<g>
	<g>
		<path d="M388.4,117.5l-118,27.2l9.1,39.9L415.6,152l9.1-12.7L388.4,117.5z"/>
        <path d="M239.5,103c5.4-3.6,12.7-9.1,16.3-16.3c16.3-27.2,9.1-61.7-18.2-78.1s-61.7-9.1-78.1,18.2c-16.3,27.2-7.3,61.7,18.2,78.1
			c7.3,3.6,14.5,7.3,21.8,9.1l10.9,45.4L165,170.1c-3.6-5.4-9.1-12.7-16.3-16.3c-27.2-16.3-61.7-9.1-78.1,18.2s-9.1,61.7,18.2,78.1
			c27.2,16.3,61.7,9.1,78.1-18.2c3.6-7.3,7.3-14.5,9.1-23.6l45.4-10.9l25.4,110.8h41.8L239.5,103z M143.3,215.5
			c-9.1,14.5-27.2,18.2-39.9,9.1c-12.7-7.3-18.2-25.4-9.1-38.1c9.1-12.7,27.2-18.2,39.9-9.1C146.9,184.7,150.5,202.8,143.3,215.5z
			 M194.1,81.2c-14.5-9.1-18.2-27.2-10.9-39.9c9.1-12.7,27.2-18.2,39.9-9.1c12.7,9.1,18.2,27.2,9.1,39.9
			C225,84.8,206.8,88.4,194.1,81.2z M241.3,177.4c-1.8,3.6-5.4,3.6-9.1,1.8c-3.6-1.8-3.6-5.4-1.8-9.1c1.8-3.6,5.4-3.6,9.1-1.8
			C243.1,170.1,244.9,173.8,241.3,177.4z"/>
	</g>
    <path d="M403.5,562.3V526h44.4v36.3 M314.7,562.3V526h44.4v36.3 M226,562.3V526h44.4v36.3 M403.5,380.8v-36.3h44.4v36.3
		 M314.7,380.8v-36.3h44.4v36.3 M226,380.8v-36.3h44.4v36.3 M536.6,562.3h-44.4V526h44.4V380.8h-44.4v-36.3h44.4v-36.3H137.3v36.3
		h44.4v36.3h-44.4V526h44.4v36.3h-44.4v36.3h399.3V562.3z"/>
</g>
</svg>